HIERARCHY
ROOT Hips
{
	OFFSET 0.00000 0.00000 0.00000
	CHANNELS 6 Xposition Yposition Zposition Zrotation Yrotation Xrotation 
	JOINT LHipJoint
	{
		OFFSET 0 0 0
		CHANNELS 3 Zrotation Yrotation Xrotation
		JOINT LeftHip
		{
			OFFSET 1.81638 -1.86202 0.89635
			CHANNELS 3 Zrotation Yrotation Xrotation
			JOINT LeftKnee
			{
				OFFSET 2.63464 -7.23861 0.00000
				CHANNELS 3 Zrotation Yrotation Xrotation
				JOINT LeftAnkle
				{
					OFFSET 2.45871 -6.75336 0.00000
					CHANNELS 3 Zrotation Yrotation Xrotation
					JOINT LeftToe
					{
						OFFSET 0.34235 -0.94059 2.20020
						CHANNELS 3 Zrotation Yrotation Xrotation
						End Site
						{
							OFFSET 0.00000 -0.00000 1.18611
						}
					}
				}
			}
		}
	}
	JOINT RHipJoint
	{
		OFFSET 0 0 0
		CHANNELS 3 Zrotation Yrotation Xrotation
		JOINT RightHip
		{
			OFFSET -1.84405 -1.86203 0.89635
			CHANNELS 3 Zrotation Yrotation Xrotation
			JOINT RightKnee
			{
				OFFSET -2.71067 -7.44751 0.00000
				CHANNELS 3 Zrotation Yrotation Xrotation
				JOINT RightAnkle
				{
					OFFSET -2.47159 -6.79060 0.00000
					CHANNELS 3 Zrotation Yrotation Xrotation
					JOINT RightToe
					{
						OFFSET -0.26223 -0.72048 2.36007
						CHANNELS 3 Zrotation Yrotation Xrotation
						End Site
						{
							OFFSET -0.00000 -0.00000 1.23343
						}
					}
				}
			}
		}
	}
	JOINT lowerback
	{
		OFFSET 0 0 0
		CHANNELS 3 Zrotation Yrotation Xrotation
		JOINT Chest
		{
			OFFSET 0.02089 1.99248 -0.22512
			CHANNELS 3 Zrotation Yrotation Xrotation
			JOINT Chest2
			{
				OFFSET 0.01476 2.01356 -0.03079
				CHANNELS 3 Zrotation Yrotation Xrotation
				JOINT lowerneck
				{
					OFFSET 0 0 0
					CHANNELS 3 Zrotation Yrotation Xrotation
					JOINT Neck
					{
						OFFSET 0.04846 1.65098 0.06663
						CHANNELS 3 Zrotation Yrotation Xrotation
						JOINT Head
						{
							OFFSET -0.06061 1.60634 -0.07565
							CHANNELS 3 Zrotation Yrotation Xrotation
							End Site
							{
								OFFSET -0.02954 1.73562 -0.03642
							}
						}
					}
				}
				JOINT LeftCollar
				{
					OFFSET 0 0 0
					CHANNELS 3 Zrotation Yrotation Xrotation
					JOINT LeftShoulder
					{
						OFFSET 3.45234 1.47051 -0.06993
CHANNELS 3 Zrotation Xrotation Yrotation
						JOINT LeftElbow
						{
OFFSET 0 -5.493130 0.000000
CHANNELS 3 Zrotation Xrotation Yrotation
							JOINT LeftWrist
							{
OFFSET 0 -3.290370 0.000000
CHANNELS 3 Zrotation Xrotation Yrotation
								JOINT lhand
								{
									OFFSET 0 0 0
CHANNELS 3 Zrotation Xrotation Yrotation
									JOINT LFingers
									{
OFFSET 0 -0.729660 0.000000
CHANNELS 3 Zrotation Xrotation Yrotation
										End Site
										{
OFFSET 0 -0.588270 0.000000
										}
									}
								}
								JOINT LThumb
								{
OFFSET 0 0.000000 0.000000
CHANNELS 3 Zrotation Xrotation Yrotation
									End Site
									{
OFFSET 0 -0.597250 0.597250
									}
								}
							}
						}
					}
				}
				JOINT RightCollar
				{
					OFFSET 0 0 0
					CHANNELS 3 Zrotation Yrotation Xrotation
					JOINT RightShoulder
					{
						OFFSET -3.41935 1.44327 0.20453
CHANNELS 3 Zrotation Xrotation Yrotation
						JOINT RightElbow
						{
OFFSET 0 -5.236840 0.000000
CHANNELS 3 Zrotation Xrotation Yrotation
							JOINT RightWrist
							{
OFFSET 0 -3.382510 0.000000
CHANNELS 3 Zrotation Xrotation Yrotation
								JOINT rhand
								{
									OFFSET 0 0 0
CHANNELS 3 Zrotation Xrotation Yrotation
									JOINT RFingers
									{
OFFSET 0 -0.691450 0.000000
CHANNELS 3 Zrotation Xrotation Yrotation
										End Site
										{
OFFSET 0 -0.557470 0.000000
										}
									}
								}
								JOINT RThumb
								{
OFFSET 0 0.000000 0.000000
CHANNELS 3 Zrotation Xrotation Yrotation
									End Site
									{
OFFSET 0 -0.565980 0.565980
									}
								}
							}
						}
					}
				}
			}
		}
	}
}
MOTION
Frames: 5
Frame Time: 0.008333333333333333
-29.740566 17.488718 -2.794099 -439.736342 87.590522 -437.249476 0.000000 0.000000 0.000000 -5.837902 5.498121 -12.547398 5.460509 13.884293 42.776059 1.059932 -16.324774 -20.249826 0.761793 -5.573905 -15.552949 0.000000 0.000000 0.000000 14.341668 9.385865 -11.615659 -2.371545 -9.598670 27.688049 -0.768204 -1.691588 -17.254886 -1.298970 7.220669 -20.370805 4.041232 -1.224512 17.039876 4.177419 -0.340850 3.478857 2.223099 -0.090264 -5.828048 6.398460 1.539005 0.479198 -15.716140 0.872391 -15.046064 -6.058067 1.148664 -4.366056 0.000000 0.000000 0.000000 15.585696 13.552333 -35.458852 42.104856 -49.267017 20.020426 7.014256 1.857173 -2.809565 0.000000 0.000000 0.000000 -7.125000 0.000000 0.000000 -15.727943 32.518705 -4.981037 0.000000 0.000000 0.000000 -9.919152 14.751727 21.049417 -78.781611 -59.514479 -50.300729 -29.878018 5.425202 -3.924188 0.000000 0.000000 0.000000 7.125000 0.000000 0.000000 -2.446931 25.455874 -1.158403
-29.700508 17.566515 -2.728310 -467.046937 86.552643 -464.680948 0.000000 0.000000 0.000000 -3.992897 2.902637 -13.033476 5.030285 13.416671 40.951077 1.292040 -14.760367 -21.389743 0.767894 -5.595760 -15.616065 0.000000 0.000000 0.000000 15.944012 9.324389 -9.392459 -1.921466 -8.699284 24.859849 -0.608247 -3.936849 -16.693785 -1.216767 6.996965 -19.706443 4.810388 -1.166237 16.673667 4.573466 -0.107542 3.341630 2.157141 0.019856 -5.781264 6.887888 1.570906 0.098152 -16.310472 0.953780 -14.124925 -6.304594 1.147476 -3.999488 0.000000 0.000000 0.000000 14.791954 14.011664 -36.483720 40.117464 -48.138537 18.526902 -0.324401 2.125699 -1.138962 0.000000 0.000000 0.000000 -7.125000 0.000000 0.000000 -21.039418 30.659325 -7.857577 0.000000 0.000000 0.000000 -10.128653 15.436808 21.765273 -86.150923 -59.936368 -56.667434 -29.369983 5.280898 -4.791557 0.000000 0.000000 0.000000 7.125000 0.000000 0.000000 -2.020119 24.485927 -1.001448
-29.640969 17.631622 -2.685831 -475.447379 86.327391 -473.542932 0.000000 0.000000 0.000000 -3.518101 0.879620 -12.230741 4.225338 12.452439 37.354862 1.587929 -11.295179 -22.767837 0.772661 -5.612570 -15.664280 0.000000 0.000000 0.000000 16.498297 9.828219 -6.982685 -1.605393 -7.990023 22.684133 -0.477682 -5.880010 -16.530265 -1.136745 6.770993 -19.038698 4.523414 -0.760494 16.196396 4.391030 0.313150 3.325354 2.027392 0.225192 -5.540546 7.281208 1.628918 -0.394160 -16.341654 1.157142 -12.634338 -6.334816 1.146945 -3.442895 0.000000 0.000000 0.000000 14.913894 14.806628 -38.005865 38.689551 -47.273767 17.470483 -5.538043 1.959865 -0.273745 0.000000 0.000000 0.000000 -7.125000 0.000000 0.000000 -24.683448 29.645650 -10.116809 0.000000 0.000000 0.000000 -11.900409 15.311713 23.688443 -95.658429 -59.870310 -64.897842 -28.573117 5.669628 -5.571238 0.000000 0.000000 0.000000 7.125000 0.000000 0.000000 -1.387216 23.642272 -0.714482
-29.567157 17.672949 -2.661277 -480.050568 86.649199 -478.924230 0.000000 0.000000 0.000000 -3.762198 -1.181727 -10.362454 3.323901 11.200631 32.960703 1.745856 -7.841954 -23.681761 0.767145 -5.592913 -15.607681 0.000000 0.000000 0.000000 16.543973 10.375069 -4.588079 -1.408975 -7.507829 21.229044 -0.391102 -7.287346 -16.677583 -1.053605 6.526696 -18.320520 3.841998 -0.220783 15.719401 3.731288 0.800574 3.314986 1.606534 0.458253 -5.291325 7.496277 1.723244 -0.702797 -15.782990 1.467051 -10.796277 -6.142714 1.172536 -2.820189 0.000000 0.000000 0.000000 16.073267 15.994075 -40.140130 37.795942 -46.708452 16.816960 -7.474237 1.264812 -0.412543 0.000000 0.000000 0.000000 -7.125000 0.000000 0.000000 -26.104524 29.679129 -10.800714 0.000000 0.000000 0.000000 -15.182071 13.945817 26.092493 -106.193739 -58.980608 -73.975749 -27.722628 6.293807 -5.841792 0.000000 0.000000 0.000000 7.125000 0.000000 0.000000 -0.745047 23.386848 -0.388193
-29.487214 17.679240 -2.649948 -481.854710 86.763842 -481.723117 0.000000 0.000000 0.000000 -3.863654 -3.633401 -8.038812 2.580789 9.983076 28.922213 1.808806 -5.390182 -24.278881 0.779871 -5.638243 -15.738281 0.000000 0.000000 0.000000 16.834676 10.641187 -2.320041 -1.286087 -7.186035 20.267667 -0.349778 -8.164764 -17.007223 -0.977668 6.294353 -17.640844 3.330939 0.288703 15.203571 2.927437 1.278050 3.227515 0.951665 0.681974 -5.094504 7.592349 1.782713 -0.550369 -14.731328 1.750330 -8.889036 -5.786476 1.192554 -2.274378 0.000000 0.000000 0.000000 17.914266 17.521556 -42.331660 37.439027 -46.477299 16.557591 -7.227053 -0.030831 -0.776042 0.000000 0.000000 0.000000 -7.125000 0.000000 0.000000 -26.020351 30.020930 -10.517907 0.000000 0.000000 0.000000 -20.107818 10.957488 28.252785 -116.077292 -57.266784 -82.376258 -27.477936 6.689017 -5.319688 0.000000 0.000000 0.000000 7.125000 0.000000 0.000000 -0.586576 23.988337 -0.297454
